<svg xmlns="http://www.w3.org/2000/svg" viewBox="0 0 44 44" width="512" height="512">
  <g transform="translate(-17.7,-6.1)">
    <rect x="17.7" y="6.1" width="44" height="44" rx="10" fill="#3b82f6"/>
    <g stroke="#ffffff" stroke-width="2.2" stroke-linecap="round" stroke-linejoin="round" fill="none">
      <path d="M29.8 36.1L46.1 14.3"/><path d="M34.5 39.7L50.8 17.9"/>
      <path d="M46.1 14.3L50.8 17.9"/><path d="M48.1 12.0L53.0 15.8"/>
      <path d="M29.8 36.1L26.4 44.2L34.5 39.7"/><path d="M44.2 17.8L40.8 28.0"/>
    </g>
    <g fill="#ffffff">
      <path d="M24.5 9.8 Q25.55 14.95 30.7 16 Q25.55 17.05 24.5 22.2 Q23.45 17.05 18.3 16 Q23.45 14.95 24.5 9.8 Z"/>
      <path d="M33.5 8.1 Q33.92 10.08 35.9 10.5 Q33.92 10.92 33.5 12.9 Q33.08 10.92 31.1 10.5 Q33.08 10.08 33.5 8.1 Z"/>
    </g>
  </g>
</svg>
