<?xml version="1.0" encoding="UTF-8"?>
<svg xmlns="http://www.w3.org/2000/svg" viewBox="17.7 6.1 44 44" width="44" height="44" role="img" aria-label="ScriptStudio">
  <rect x="17.7" y="6.1" width="44" height="44" fill="#3b82f6"/>
  <g stroke="#ffffff" stroke-width="2.2" stroke-linecap="round" stroke-linejoin="round" fill="none">
    <path d="M29.8 36.1L46.1 14.3"/>
    <path d="M34.5 39.7L50.8 17.9"/>
    <path d="M46.1 14.3L50.8 17.9"/>
    <path d="M48.1 12.0L53.0 15.8"/>
    <path d="M29.8 36.1L26.4 44.2L34.5 39.7"/>
    <path d="M44.2 17.8L40.8 28.0"/>
  </g>
  <g fill="#ffffff">
    <path d="M26.5 11.2 Q27.5 16 32.3 17 Q27.5 18 26.5 22.8 Q25.5 18 20.7 17 Q25.5 16 26.5 11.2 Z"/>
    <path d="M35 9.2 Q35.4 11.1 37.3 11.5 Q35.4 11.9 35 13.8 Q34.6 11.9 32.7 11.5 Q34.6 11.1 35 9.2 Z"/>
  </g>
</svg>
